<svg width="227" height="30" viewBox="0 0 227 30" fill="none" xmlns="http://www.w3.org/2000/svg">
<path d="M14.9062 29.7031C13.2812 29.7031 11.6719 29.5156 10.0781 29.1406C8.51562 28.7656 7.01562 28.2188 5.57812 27.5C4.14062 26.75 2.875 25.7656 1.78125 24.5469C0.6875 23.3281 0.09375 21.875 0 20.1875V18.2188V10.2031C0 9.32812 0.3125 8.60938 0.9375 8.04688C1.59375 7.45312 2.35938 7.15625 3.23438 7.15625C5.10938 7.3125 6.125 8.32812 6.28125 10.2031V12.2656V18.7344C6.34375 19.7031 6.70312 20.5156 7.35938 21.1719C8.04688 21.7969 8.79688 22.2969 9.60938 22.6719C10.4531 23.0469 11.3125 23.3281 12.1875 23.5156C13.0938 23.7031 14 23.7969 14.9062 23.7969C15.8125 23.7969 16.7031 23.7031 17.5781 23.5156C18.4844 23.3281 19.3438 23.0469 20.1562 22.6719C21 22.2969 21.75 21.7969 22.4062 21.1719C23.0938 20.5156 23.4688 19.7031 23.5312 18.7344V12.2656V10.2031C23.5312 9.32812 23.8438 8.60938 24.4688 8.04688C25.125 7.45312 25.8906 7.15625 26.7656 7.15625C28.6406 7.3125 29.6719 8.32812 29.8594 10.2031V18.2188V20.1875C29.7656 21.875 29.1562 23.3281 28.0312 24.5469C26.9375 25.7656 25.6719 26.75 24.2344 27.5C22.7969 28.2188 21.2812 28.7656 19.6875 29.1406C18.125 29.5156 16.5312 29.7031 14.9062 29.7031ZM65.625 10.3438C65.625 11.125 65.3125 11.7812 64.6875 12.3125C64.0938 12.8125 63.3594 13.0625 62.4844 13.0625H42.6562C42.25 13.0625 41.9219 13.1406 41.6719 13.2969C41.4219 13.4531 41.2344 13.625 41.1094 13.8125C40.9844 13.9688 40.9219 14.1094 40.9219 14.2344C40.9219 14.3906 40.9844 14.5625 41.1094 14.75C41.2344 14.9062 41.4219 15.0625 41.6719 15.2188C41.9219 15.3438 42.25 15.4219 42.6562 15.4531H57.9844C59.9531 15.4844 61.5781 15.875 62.8594 16.625C64.1406 17.3438 65.0469 18.2031 65.5781 19.2031C66.1406 20.1719 66.4219 21.1562 66.4219 22.1562C66.4219 23.125 66.1406 24.1094 65.5781 25.1094C65.0156 26.0781 64.0938 26.9375 62.8125 27.6875C61.5625 28.4062 59.9531 28.7656 57.9844 28.7656C57.6406 28.7969 57.3906 28.8125 57.2344 28.8125H39.0469C38.1719 28.8125 37.4219 28.5625 36.7969 28.0625C36.2031 27.5312 35.9062 26.8906 35.9062 26.1406C35.9062 25.3594 36.2188 24.7031 36.8438 24.1719C37.4375 23.6719 38.1719 23.4219 39.0469 23.4219H58.3594C58.8281 23.4531 59.2031 23.3906 59.4844 23.2344C59.7969 23.0781 60.0312 22.9062 60.1875 22.7188C60.3438 22.5312 60.4219 22.3438 60.4219 22.1562C60.4219 22.0625 60.3438 21.9062 60.1875 21.6875C60.0312 21.4375 59.7969 21.25 59.4844 21.125C59.2031 20.9688 58.8281 20.875 58.3594 20.8438H42.9844C41.1719 20.8125 39.6719 20.4375 38.4844 19.7188C37.2969 18.9688 36.4531 18.1094 35.9531 17.1406C35.4531 16.1719 35.2031 15.2031 35.2031 14.2344C35.2031 13.2656 35.4531 12.3125 35.9531 11.375C36.4844 10.4062 37.3281 9.57812 38.4844 8.89062C39.6719 8.17188 41.1719 7.78125 42.9844 7.71875C43.2969 7.6875 43.5312 7.67188 43.6875 7.67188H62.4844C63.3594 7.67188 64.0938 7.9375 64.6875 8.46875C65.3125 8.96875 65.625 9.59375 65.625 10.3438ZM81.1406 28.9062C78.3906 28.8125 76.3125 28.1719 74.9062 26.9844C73.5 25.7656 72.4844 24.4062 71.8594 22.9062C71.2344 21.375 70.9219 19.8281 70.9219 18.2656C70.9219 16.6406 71.2188 15.0781 71.8125 13.5781C72.4375 12.0469 73.4531 10.6875 74.8594 9.5C76.2969 8.28125 78.1094 7.65625 80.2969 7.625H98.1094C98.9844 7.625 99.7188 7.9375 100.312 8.5625C100.938 9.15625 101.25 9.89062 101.25 10.7656C101.25 11.6406 100.938 12.3906 100.312 13.0156C99.7188 13.6094 98.9844 13.9062 98.1094 13.9062H80.1094C79.5156 13.9062 79 14.1562 78.5625 14.6562C78.125 15.125 77.7969 15.6875 77.5781 16.3438C77.3906 16.9688 77.2969 17.5938 77.2969 18.2188C77.2969 18.875 77.3906 19.5312 77.5781 20.1875C77.7969 20.8125 78.125 21.375 78.5625 21.875C79 22.3438 79.5156 22.5938 80.1094 22.625H98.1094C98.9844 22.625 99.7188 22.9375 100.312 23.5625C100.938 24.1562 101.25 24.8906 101.25 25.7656C101.25 26.6406 100.938 27.375 100.312 27.9688C99.7188 28.5938 98.9844 28.9062 98.1094 28.9062H81.1406ZM109.406 0.5C110.25 0.53125 110.969 0.84375 111.562 1.4375C112.156 2 112.469 2.70312 112.5 3.54688V7.625H127.031C129.219 7.65625 131.016 8.28125 132.422 9.5C133.859 10.6875 134.875 12.0312 135.469 13.5312C136.094 15.0625 136.406 16.6406 136.406 18.2656H136.453V26.4219C136.453 27.2969 136.125 28.0312 135.469 28.625C134.844 29.1875 134.094 29.4688 133.219 29.4688C131.344 29.3125 130.312 28.2969 130.125 26.4219V18.2188C130.125 17.625 130 17 129.75 16.3438C129.531 15.6875 129.203 15.125 128.766 14.6562C128.328 14.1562 127.812 13.9062 127.219 13.9062H112.5V26.5156C112.312 28.3906 111.281 29.4062 109.406 29.5625C108.531 29.5625 107.766 29.2812 107.109 28.7188C106.484 28.125 106.172 27.3906 106.172 26.5156V3.54688C106.203 2.67188 106.531 1.95312 107.156 1.39062C107.781 0.796875 108.531 0.5 109.406 0.5ZM152.062 28.9062C149.312 28.8125 147.234 28.1719 145.828 26.9844C144.422 25.7656 143.406 24.4062 142.781 22.9062C142.156 21.375 141.844 19.8281 141.844 18.2656C141.844 16.6406 142.141 15.0781 142.734 13.5781C143.359 12.0469 144.375 10.6875 145.781 9.5C147.219 8.28125 149.031 7.65625 151.219 7.625H166.406C168.594 7.65625 170.391 8.28125 171.797 9.5C173.234 10.6875 174.25 12.0469 174.844 13.5781C175.469 15.0781 175.781 16.6406 175.781 18.2656C175.781 19.8281 175.469 21.375 174.844 22.9062C174.219 24.4062 173.203 25.7656 171.797 26.9844C170.391 28.1719 168.312 28.8125 165.562 28.9062H152.062ZM151.031 13.9062C150.438 13.9062 149.922 14.1562 149.484 14.6562C149.047 15.125 148.719 15.6875 148.5 16.3438C148.312 16.9688 148.219 17.5938 148.219 18.2188C148.219 18.875 148.312 19.5312 148.5 20.1875C148.719 20.8125 149.047 21.375 149.484 21.875C149.922 22.3438 150.438 22.5938 151.031 22.625H166.594C167.188 22.5938 167.703 22.3438 168.141 21.875C168.578 21.375 168.891 20.8125 169.078 20.1875C169.297 19.5312 169.406 18.875 169.406 18.2188C169.406 17.5938 169.297 16.9688 169.078 16.3438C168.891 15.6875 168.578 15.125 168.141 14.6562C167.703 14.1562 167.188 13.9062 166.594 13.9062H151.031ZM190.875 28.9062C188.125 28.8125 186.047 28.1719 184.641 26.9844C183.234 25.7656 182.219 24.4062 181.594 22.9062C180.969 21.375 180.656 19.8281 180.656 18.2656C180.656 16.6406 180.953 15.0781 181.547 13.5781C182.172 12.0469 183.188 10.6875 184.594 9.5C186.031 8.28125 187.844 7.65625 190.031 7.625H205.219C207.406 7.65625 209.203 8.28125 210.609 9.5C212.047 10.6875 213.062 12.0469 213.656 13.5781C214.281 15.0781 214.594 16.6406 214.594 18.2656C214.594 19.8281 214.281 21.375 213.656 22.9062C213.031 24.4062 212.016 25.7656 210.609 26.9844C209.203 28.1719 207.125 28.8125 204.375 28.9062H190.875ZM189.844 13.9062C189.25 13.9062 188.734 14.1562 188.297 14.6562C187.859 15.125 187.531 15.6875 187.312 16.3438C187.125 16.9688 187.031 17.5938 187.031 18.2188C187.031 18.875 187.125 19.5312 187.312 20.1875C187.531 20.8125 187.859 21.375 188.297 21.875C188.734 22.3438 189.25 22.5938 189.844 22.625H205.406C206 22.5938 206.516 22.3438 206.953 21.875C207.391 21.375 207.703 20.8125 207.891 20.1875C208.109 19.5312 208.219 18.875 208.219 18.2188C208.219 17.5938 208.109 16.9688 207.891 16.3438C207.703 15.6875 207.391 15.125 206.953 14.6562C206.516 14.1562 206 13.9062 205.406 13.9062H189.844ZM223.219 0.5C224.062 0.53125 224.781 0.84375 225.375 1.4375C225.969 2 226.281 2.70312 226.312 3.54688V26.5156C226.125 28.3906 225.094 29.4062 223.219 29.5625C222.344 29.5625 221.578 29.2812 220.922 28.7188C220.297 28.125 219.984 27.3906 219.984 26.5156V3.54688C220.016 2.67188 220.344 1.95312 220.969 1.39062C221.594 0.796875 222.344 0.5 223.219 0.5Z" fill="white"/>
</svg>
